<?xml version="1.0" standalone="no"?>
<!DOCTYPE svg PUBLIC "-//W3C//DTD SVG 20010904//EN"
 "http://www.w3.org/TR/2001/REC-SVG-20010904/DTD/svg10.dtd">
<svg version="1.0" xmlns="http://www.w3.org/2000/svg"
 width="32" height="32" viewBox="0 0 500.000000 514.000000"
 preserveAspectRatio="xMidYMid meet">

<g transform="translate(0.000000,514.000000) scale(0.100000,-0.100000)"
fill="#000000" stroke="none">
<path d="M2385 4203 c-119 -20 -180 -39 -285 -91 -82 -39 -112 -58 -175 -104
-57 -43 -100 -84 -99 -94 1 -8 -1 -12 -5 -10 -4 3 -13 1 -21 -4 -12 -7 -12
-11 1 -27 13 -16 12 -17 -2 -5 -14 11 -21 8 -43 -20 -14 -18 -31 -39 -37 -46
-5 -7 -7 -17 -3 -24 4 -6 3 -8 -4 -4 -14 8 -75 -80 -66 -96 4 -6 3 -8 -3 -5
-13 8 -67 -109 -59 -129 3 -8 2 -13 -3 -9 -13 7 -33 -58 -25 -81 4 -14 3 -15
-4 -6 -23 33 -57 -214 -48 -342 11 -144 47 -293 68 -280 7 4 8 2 4 -4 -13 -21
62 -201 77 -185 4 3 7 -2 7 -13 1 -25 24 -56 36 -46 5 4 6 3 2 -2 -4 -5 2 -22
14 -38 16 -23 23 -27 30 -16 7 9 8 7 4 -8 -5 -16 11 -37 74 -98 49 -48 84 -75
91 -70 7 4 9 3 6 -3 -3 -5 6 -19 22 -31 32 -23 143 -164 184 -232 15 -25 43
-70 62 -100 19 -30 38 -62 42 -70 13 -29 40 -59 47 -52 4 3 5 0 2 -8 -3 -8 5
-33 18 -55 14 -22 55 -97 92 -167 46 -86 71 -123 77 -115 6 8 7 6 3 -6 -7 -23
11 -60 26 -51 6 4 8 3 5 -3 -9 -15 52 -138 63 -127 18 19 114 220 111 233 -1
7 1 11 6 8 5 -3 23 20 39 51 17 31 52 94 78 140 26 46 43 88 40 94 -4 6 -3 8
2 5 9 -5 98 130 105 158 1 6 9 15 17 21 9 7 12 16 7 24 -6 9 -4 11 5 5 10 -6
12 -4 7 9 -4 10 -3 15 3 11 5 -3 17 9 26 26 9 18 25 41 35 53 11 11 17 26 14
34 -2 7 0 10 5 7 6 -4 18 6 26 22 9 15 59 63 110 106 52 43 93 81 91 85 -1 4
1 7 4 7 13 0 49 38 49 52 0 8 3 12 8 9 8 -5 90 102 115 151 9 17 14 40 11 50
-5 14 -4 15 4 4 13 -18 29 13 66 124 56 168 74 311 56 460 -18 153 -78 343
-107 338 -6 -1 -17 5 -25 15 -11 15 -11 16 3 5 18 -15 30 -8 22 13 -3 8 -10
11 -16 7 -6 -4 -7 -1 -3 6 5 7 -11 41 -39 83 -36 55 -49 68 -57 57 -8 -11 -8
-9 -4 5 6 18 0 27 -62 91 -33 34 -67 60 -75 57 -5 -1 -6 2 -2 7 3 6 -7 18 -22
28 -15 10 -34 23 -41 30 -26 25 -148 93 -222 123 -163 68 -389 93 -565 63z
m305 -427 c36 -8 69 -11 74 -8 5 3 6 0 3 -5 -4 -6 5 -14 21 -18 15 -3 50 -20
77 -37 28 -18 58 -31 67 -30 10 0 20 -3 23 -9 3 -5 -2 -6 -12 -3 -10 4 4 -13
32 -37 27 -24 53 -44 57 -44 4 0 8 -4 9 -10 0 -5 6 -17 12 -25 40 -51 86 -154
109 -242 17 -69 19 -98 13 -178 -3 -52 -7 -107 -8 -122 -1 -14 -5 -24 -8 -22
-4 2 -10 -8 -14 -24 -3 -15 -19 -52 -35 -83 -16 -32 -26 -60 -22 -65 4 -4 1
-4 -5 0 -8 4 -13 2 -13 -6 0 -7 -9 -19 -21 -26 -13 -9 -18 -19 -14 -30 3 -9 3
-13 -1 -9 -4 4 -35 -17 -68 -47 -123 -108 -288 -164 -446 -152 -130 10 -143
13 -250 67 -95 48 -176 120 -237 211 -26 40 -48 77 -49 83 -1 5 -9 27 -18 48
-24 56 -37 131 -37 222 0 161 78 334 201 448 33 31 56 57 52 60 -4 2 -1 2 6 0
8 -2 27 6 43 18 106 75 304 107 459 75z m-476 -1802 c3 -8 2 -12 -4 -9 -6 3
-10 10 -10 16 0 14 7 11 14 -7z"/>
<path d="M1566 1641 c-135 -123 -169 -159 -161 -171 5 -8 4 -11 -3 -6 -14 8
-53 -24 -45 -37 3 -6 1 -7 -4 -4 -13 8 -36 -17 -25 -28 4 -5 2 -5 -4 -2 -14 8
-96 -71 -88 -85 4 -7 2 -8 -5 -4 -14 9 -173 -142 -165 -156 3 -4 -1 -8 -10 -8
-8 0 -16 -4 -18 -8 -1 -4 -24 -25 -51 -47 -27 -23 -45 -45 -42 -53 3 -7 0 -10
-6 -7 -13 8 -51 -24 -43 -37 3 -4 2 -7 -3 -6 -4 2 -23 -12 -41 -30 l-33 -32
1682 0 c1515 0 1680 2 1669 15 -7 9 -19 14 -27 11 -8 -3 -12 -2 -9 3 5 8 -59
74 -234 241 -47 45 -144 140 -217 212 -73 71 -136 127 -141 124 -5 -3 -18 4
-28 17 l-19 22 25 -20 c21 -17 21 -15 -4 12 -16 18 -34 30 -39 26 -6 -3 -7 -2
-4 4 8 13 -37 56 -48 46 -4 -5 -5 -3 -2 3 4 6 -3 20 -14 30 -20 18 -40 19
-283 19 -203 0 -260 -3 -259 -12 2 -7 -1 -13 -6 -13 -5 0 -26 -30 -47 -67 -20
-38 -43 -76 -52 -85 -8 -10 -12 -24 -8 -33 3 -9 2 -14 -3 -11 -5 3 -12 0 -15
-7 -3 -6 -14 -24 -24 -39 -48 -74 -86 -144 -83 -157 1 -7 -2 -10 -7 -7 -12 7
-24 -22 -15 -36 3 -6 2 -8 -4 -5 -5 3 -18 -8 -28 -25 -18 -30 -19 -31 -32 -12
-19 26 -77 118 -78 124 -5 19 -30 60 -37 60 -4 0 -8 4 -8 10 0 5 -34 66 -76
136 -41 70 -82 140 -90 156 l-15 29 -311 -2 -310 -1 -52 -47z m-446 -454 c0
-2 -10 -12 -22 -23 l-23 -19 19 23 c18 21 26 27 26 19z"/>
</g>
</svg>
