<?xml version="1.0" encoding="utf-8"?>
<svg version="1.1" xmlns:xlink="http://www.w3.org/1999/xlink" width="300px" height="405px" xmlns="http://www.w3.org/2000/svg">
  <defs>
    <mask fill="white" id="clip111">
      <path d="M 0 395  L 0 0  L 37.0422535211274 0  L 290 0  L 290 395  L 0 395  Z " fill-rule="evenodd" />
    </mask>
    <filter x="1130px" y="94px" width="300px" height="405px" filterUnits="userSpaceOnUse" id="filter112">
      <feOffset dx="5" dy="5" in="SourceAlpha" result="shadowOffsetInner" />
      <feGaussianBlur stdDeviation="2.5" in="shadowOffsetInner" result="shadowGaussian" />
      <feComposite in2="shadowGaussian" operator="atop" in="SourceAlpha" result="shadowComposite" />
      <feColorMatrix type="matrix" values="0 0 0 0 0  0 0 0 0 0  0 0 0 0 0  0 0 0 0.349019607843137 0  " in="shadowComposite" />
    </filter>
    <g id="widget113">
      <path d="M 0 395  L 0 0  L 37.0422535211274 0  L 290 0  L 290 395  L 0 395  Z " fill-rule="nonzero" fill="#ffffff" stroke="none" transform="matrix(1 0 0 1 1130 94 )" />
      <path d="M 0 395  L 0 0  L 37.0422535211274 0  L 290 0  L 290 395  L 0 395  Z " stroke-width="2" stroke="#f2f2f2" fill="none" transform="matrix(1 0 0 1 1130 94 )" mask="url(#clip111)" />
    </g>
  </defs>
  <g transform="matrix(1 0 0 1 -1130 -94 )">
    <use xlink:href="#widget113" filter="url(#filter112)" />
    <use xlink:href="#widget113" />
  </g>
</svg>