<?xml version="1.0" encoding="utf-8"?>
<svg version="1.1" xmlns:xlink="http://www.w3.org/1999/xlink" width="81px" height="22px" xmlns="http://www.w3.org/2000/svg">
  <defs>
    <mask fill="white" id="clip109">
      <path d="M 0 16  L 0 6  C 0 2.63999999999999  2.6400000000001 0  6 0  L 75 0  C 78.3599999999999 0  81 2.63999999999999  81 6  L 81 16  C 81 19.36  78.3599999999999 22  75 22  L 55.8494623655922 22  L 6 22  C 2.6400000000001 22  0 19.36  0 16  Z " fill-rule="evenodd" />
    </mask>
  </defs>
  <g transform="matrix(1 0 0 1 -1182 -859 )">
    <path d="M 0 16  L 0 6  C 0 2.63999999999999  2.6400000000001 0  6 0  L 75 0  C 78.3599999999999 0  81 2.63999999999999  81 6  L 81 16  C 81 19.36  78.3599999999999 22  75 22  L 55.8494623655922 22  L 6 22  C 2.6400000000001 22  0 19.36  0 16  Z " fill-rule="nonzero" fill="#02a7f0" stroke="none" fill-opacity="0.803921568627451" transform="matrix(1 0 0 1 1182 859 )" />
    <path d="M 0 16  L 0 6  C 0 2.63999999999999  2.6400000000001 0  6 0  L 75 0  C 78.3599999999999 0  81 2.63999999999999  81 6  L 81 16  C 81 19.36  78.3599999999999 22  75 22  L 55.8494623655922 22  L 6 22  C 2.6400000000001 22  0 19.36  0 16  Z " stroke-width="2" stroke="#797979" fill="none" transform="matrix(1 0 0 1 1182 859 )" mask="url(#clip109)" />
  </g>
</svg>