<?xml version="1.0" encoding="utf-8"?>
<svg version="1.1" xmlns:xlink="http://www.w3.org/1999/xlink" width="23px" height="21px" xmlns="http://www.w3.org/2000/svg">
  <defs>
    <mask fill="white" id="clip108">
      <path d="M 0 13  L 0 8  C 0 3.51999999999998  3.51999999999998 0  8 0  L 9.75000000000091 0  L 15 0  C 19.48 0  23 3.51999999999998  23 8  L 23 13  C 23 17.48  19.48 21  15 21  L 8 21  C 3.51999999999998 21  0 17.48  0 13  Z " fill-rule="evenodd" />
    </mask>
  </defs>
  <g transform="matrix(1 0 0 1 -303 -600 )">
    <path d="M 0 13  L 0 8  C 0 3.51999999999998  3.51999999999998 0  8 0  L 9.75000000000091 0  L 15 0  C 19.48 0  23 3.51999999999998  23 8  L 23 13  C 23 17.48  19.48 21  15 21  L 8 21  C 3.51999999999998 21  0 17.48  0 13  Z " fill-rule="nonzero" fill="#f2f2f2" stroke="none" transform="matrix(1 0 0 1 303 600 )" />
    <path d="M 0 13  L 0 8  C 0 3.51999999999998  3.51999999999998 0  8 0  L 9.75000000000091 0  L 15 0  C 19.48 0  23 3.51999999999998  23 8  L 23 13  C 23 17.48  19.48 21  15 21  L 8 21  C 3.51999999999998 21  0 17.48  0 13  Z " stroke-width="2" stroke="#ffffff" fill="none" transform="matrix(1 0 0 1 303 600 )" mask="url(#clip108)" />
  </g>
</svg>